<?xml version="1.0" encoding="UTF-8" standalone="no"?>
<!-- Created with Inkscape (http://www.inkscape.org/) -->

<svg
   xmlns:dc="http://purl.org/dc/elements/1.1/"
   xmlns:cc="http://creativecommons.org/ns#"
   xmlns:rdf="http://www.w3.org/1999/02/22-rdf-syntax-ns#"
   xmlns:svg="http://www.w3.org/2000/svg"
   xmlns="http://www.w3.org/2000/svg"
   xmlns:sodipodi="http://sodipodi.sourceforge.net/DTD/sodipodi-0.dtd"
   xmlns:inkscape="http://www.inkscape.org/namespaces/inkscape"
   width="210mm"
   height="297mm"
   viewBox="0 0 210 297"
   version="1.1"
   id="svg8"
   inkscape:version="0.92.4 (unknown)"
   sodipodi:docname="DURT.svg">
  <defs
     id="defs2" />
  <sodipodi:namedview
     id="base"
     pagecolor="#ffffff"
     bordercolor="#666666"
     borderopacity="1.0"
     inkscape:pageopacity="0.0"
     inkscape:pageshadow="2"
     inkscape:zoom="0.98994949"
     inkscape:cx="6.6993663"
     inkscape:cy="729.1929"
     inkscape:document-units="mm"
     inkscape:current-layer="text817"
     showgrid="false"
     showguides="true"
     inkscape:guide-bbox="true"
     inkscape:window-width="1276"
     inkscape:window-height="1025"
     inkscape:window-x="0"
     inkscape:window-y="53"
     inkscape:window-maximized="0">
    <sodipodi:guide
       position="11.759859,221.29918"
       orientation="1,0"
       id="guide826"
       inkscape:locked="false" />
    <sodipodi:guide
       position="86.862594,187.89048"
       orientation="1,0"
       id="guide828"
       inkscape:locked="false" />
  </sodipodi:namedview>
  <metadata
     id="metadata5">
    <rdf:RDF>
      <cc:Work
         rdf:about="">
        <dc:format>image/svg+xml</dc:format>
        <dc:type
           rdf:resource="http://purl.org/dc/dcmitype/StillImage" />
        <dc:title></dc:title>
      </cc:Work>
    </rdf:RDF>
  </metadata>
  <g
     inkscape:label="Layer 1"
     inkscape:groupmode="layer"
     id="layer1">
    <g
       aria-label="D"
       style="font-style:normal;font-weight:normal;font-size:54.19487px;line-height:1.25;font-family:sans-serif;letter-spacing:0px;word-spacing:0px;fill:#000000;fill-opacity:1;stroke:none;stroke-width:1.35487175"
       id="text817">
      <g
         id="g915"
         inkscape:export-xdpi="300.009"
         inkscape:export-ydpi="300.009">
        <path
           sodipodi:nodetypes="ccscscsc"
           inkscape:connector-curvature="0"
           id="path819"
           style="font-style:normal;font-variant:normal;font-weight:normal;font-stretch:normal;font-size:130.06916809px;font-family:FreeSans;-inkscape-font-specification:'FreeSans, Normal';font-variant-ligatures:normal;font-variant-caps:normal;font-variant-numeric:normal;font-feature-settings:normal;text-align:start;writing-mode:lr-tb;text-anchor:start;fill:#000600;fill-opacity:1;stroke-width:1.35487175"
           d="M 11.63142,118.19669 V 23.37627 h 36.549436 c 14.134183,0 24.626429,5.723043 31.476739,17.16913 4.769203,8.064289 7.153804,18.122971 7.153804,30.176047 0,18.122971 -5.029341,31.303313 -15.088024,39.541023 -6.416745,5.28948 -14.264252,7.93422 -23.542519,7.93422 z" />
        <text
           id="text824"
           y="141.75282"
           x="10.379599"
           style="font-style:normal;font-weight:normal;font-size:27.83659554px;line-height:1.25;font-family:sans-serif;letter-spacing:0px;word-spacing:0px;fill:#000000;fill-opacity:1;stroke:none;stroke-width:0.94287556"
           xml:space="preserve"><tspan
             style="font-style:normal;font-variant:normal;font-weight:normal;font-stretch:normal;font-size:27.83659554px;font-family:FreeSans;-inkscape-font-specification:'FreeSans, Normal';font-variant-ligatures:normal;font-variant-caps:normal;font-variant-numeric:normal;font-feature-settings:normal;text-align:start;writing-mode:lr-tb;text-anchor:start;fill:#000000;stroke:#000000;stroke-width:0.94287556"
             y="141.75282"
             x="10.379599"
             id="tspan822"
             sodipodi:role="line">DURC</tspan></text>
        <g
           transform="matrix(-0.14757433,0,0,0.14757433,77.753589,49.423929)"
           id="g906"
           style="overflow:visible;fill:#ffffff">
          <path
             inkscape:connector-curvature="0"
             d="m 33.588,70.703 c 9.503,-1.647 18.38,-4.807 27.535,-7.743 10.538,-3.38 18.243,-2.232 29.739,-1.105 -1.896,19.755 1.565,39.415 -2.755,58.903 -4.196,18.928 -17.169,34.678 -19.272,54.48 -4.014,37.786 21.413,73.222 53.047,90.87 14.503,8.092 30.264,14.863 46.625,18.089 21.02,4.144 37.852,-0.608 58.922,-1.105 9.956,-0.234 20.047,3.468 29.882,1.351 10.215,-2.199 20.495,-4.158 30.667,-6.543 13.186,-3.091 43.527,-5.853 51.793,-16.38 -0.888,-0.197 -1.882,-0.19 -2.756,-0.551 5.632,-2.055 36.808,-16.517 18.726,-23.23 15.934,-11.285 40.07,-17.891 53.416,-30.974 -21.322,-2.114 -50.294,10.255 -71.589,14.935 13.112,-7.143 27.398,-11.129 39.648,-19.913 -13.98,3.663 -56.821,23.404 -61.676,4.424 11.421,-2.048 22.059,-5.171 33.04,-8.849 -3.499,-0.702 -8.499,-2.842 -11.989,-1.966 -4.232,1.063 -12.427,5.021 -16.645,4.179 -7.33,-1.465 -19.267,-13.641 -26.371,-17.801 -18.017,-10.553 -37.271,-18.496 -57.332,-24.234 -18.787,-5.375 -36.664,-10.718 -56.17,-7.744 -14.946,2.279 -31.002,5.938 -43.506,-4.979 -14.354,-12.528 -12.665,-33.795 -12.665,-51.137 0,-17.898 10.813,-29.613 16.246,-45.93 C 150.401,16.953 109.133,-9.81 82.6,3.504 69.667,9.994 62.598,24.02 53.689,34.752 43.38,47.172 31.191,46.64 16.242,48.303 9.682,49.033 0,49.926 0,58.813 0,72.129 24.382,70.196 33.588,70.703"
             id="path3"
             style="clip-rule:evenodd;fill:#ffffff;fill-rule:evenodd" />
          <path
             inkscape:connector-curvature="0"
             d="m 215.315,272.582 c 1.325,5.712 -3.708,11.103 -2.468,16.084 1.763,7.081 5.144,17.08 1.917,24.293 -7.031,15.721 -31.695,10.945 -45.158,13.826 5.158,-0.149 9.227,3.376 10.467,8.297 10.898,-10.287 7.508,1.123 13.768,3.871 5.188,2.277 10.832,-1.349 17.069,-0.552 10.445,1.334 8.302,2.246 17.622,-0.554 5.889,-1.769 13.836,-2.664 19.272,-5.53 -7.177,-2.582 -14.07,-6.423 -21.475,-7.745 8.105,-19.753 -0.854,-36.911 -3.307,-57.521 -2.257,1.97 -5.816,3.757 -7.707,5.531"
             id="path5"
             style="clip-rule:evenodd;fill:#ffffff;fill-rule:evenodd" />
          <path
             inkscape:connector-curvature="0"
             d="m 168.507,277.56 c -0.016,10.557 9.24,30.222 0,39.27 -5.629,5.513 -16.014,2.213 -23.403,2.213 -10.767,0 -21.507,2.84 -32.215,3.872 5.504,-0.227 10.818,2.479 11.565,8.296 4.308,-1.77 23.688,2.2 22.301,3.595 6.441,-6.479 17.918,-3.357 25.606,-8.02 6.694,-4.059 10.997,-11.797 10.38,-19.87 -0.465,-6.094 -2.945,-13.041 1.775,-17.781 3.619,-3.634 7.789,-7.309 9.324,-12.126 -3.418,0.259 -6.364,1.086 -9.691,2.09 -9.078,2.738 -2.814,-0.325 -6.831,-3.197 0.198,0.142 -2.735,-10.104 -7.712,-4.979 -1.679,1.73 -1.732,4.436 -1.099,6.637"
             id="path7"
             style="clip-rule:evenodd;fill:#ffffff;fill-rule:evenodd" />
        </g>
      </g>
    </g>
  </g>
</svg>
